<svg xmlns="http://www.w3.org/2000/svg" width="512" height="512" viewBox="0 0 512 512" version="1.1">
	<path d="M 42.343 120.549 C 41.674 122.292, 45.284 126.638, 48.159 127.551 C 49.173 127.872, 50.466 129.002, 51.033 130.061 C 52.016 131.898, 53.529 153.750, 53.037 159 C 52.908 160.375, 52.509 215.076, 52.151 280.559 L 51.500 399.618 48.750 402.885 C 46.773 405.235, 46 407.256, 46 410.077 L 46 414 260.627 414 L 475.254 414 474.770 408.953 C 474.416 405.271, 473.561 403.152, 471.610 401.115 L 468.935 398.323 468.984 280.533 C 469.012 211.255, 468.657 162.281, 468.123 161.622 C 467.590 160.964, 467.533 154.302, 467.986 145.528 C 468.638 132.874, 469.028 130.396, 470.500 129.528 C 476.993 125.696, 478.500 124.271, 478.500 121.960 L 478.500 119.500 260.719 119.248 C 64.597 119.021, 42.880 119.150, 42.343 120.549 M 150.500 129.038 C 147.200 129.448, 136.705 129.832, 127.177 129.891 C 111.403 129.990, 109.883 130.153, 110.183 131.710 C 110.676 134.272, 116.194 135.122, 128 134.454 C 147.419 133.355, 158 131.375, 158 128.839 C 158 128.378, 157.662 128.066, 157.250 128.147 C 156.838 128.228, 153.800 128.629, 150.500 129.038 M 301.825 128.508 C 301.546 128.788, 291.581 129.038, 279.683 129.064 C 267.784 129.091, 257.809 129.501, 257.515 129.975 C 257.222 130.450, 257.693 131.550, 258.562 132.419 C 262.173 136.031, 303 132.742, 303 128.839 C 303 127.886, 302.569 127.764, 301.825 128.508 M 422 128.967 C 411.275 129.260, 402.613 129.838, 402.750 130.250 C 402.887 130.662, 403 131.420, 403 131.933 C 403 133.837, 407.245 134.052, 424.041 132.997 C 435.418 132.283, 442.234 131.413, 444.130 130.433 C 447.730 128.571, 447.765 127.940, 444.250 128.217 C 442.738 128.337, 432.725 128.674, 422 128.967 M 173.100 136.348 C 173.213 139.840, 172.985 143.215, 172.594 143.848 C 172.071 144.695, 157.188 145, 116.441 145 L 61 145 61 148.500 C 61 152.707, 63.008 153.163, 65.408 149.500 L 67.046 147 119.863 147 L 172.679 147 173.850 149.571 C 174.585 151.183, 175.671 152.018, 176.761 151.810 C 178.221 151.531, 178.547 150.118, 178.795 142.989 C 179.178 131.981, 178.664 130, 175.428 130 C 172.961 130, 172.900 130.167, 173.100 136.348 M 186 141.583 C 186 150.404, 186.298 153.068, 187.250 152.753 C 189.669 151.953, 189.384 130, 186.955 130 C 186.403 130, 186 134.894, 186 141.583 M 195 141 C 195 150.180, 195.252 152, 196.521 152 C 197.358 152, 198.555 150.875, 199.182 149.500 L 200.321 147 258 147 L 315.679 147 316.854 149.579 C 319.018 154.327, 320.482 151.853, 320.795 142.920 C 321.157 132.582, 320.595 130, 317.981 130 C 316.182 130, 316 130.691, 316 137.500 L 316 145 262.640 145 C 233.291 145, 207.231 144.719, 204.729 144.376 L 200.178 143.753 199.488 136.876 C 198.901 131.032, 198.512 130, 196.899 130 C 195.149 130, 195 130.863, 195 141 M 329 141.500 C 329 150.389, 329.298 153.067, 330.250 152.750 C 331.147 152.451, 331.500 149.278, 331.500 141.500 C 331.500 133.722, 331.147 130.549, 330.250 130.250 C 329.298 129.933, 329 132.611, 329 141.500 M 338.809 139.750 C 338.629 145.113, 338.646 150.063, 338.848 150.750 C 339.437 152.763, 340.954 152.194, 342.182 149.500 L 343.321 147 399.093 147 C 453.987 147, 454.875 147.031, 455.500 149 C 455.849 150.100, 457.004 151, 458.067 151 C 459.758 151, 460 150.265, 460 145.125 C 460 138.169, 459.094 133, 457.875 133 C 457.394 133, 457 135.261, 457 138.025 C 457 142.498, 456.719 143.156, 454.435 144.025 C 451.588 145.107, 355.293 145.413, 347.640 144.364 L 343 143.728 343 136.864 C 343 130.748, 342.790 130, 341.069 130 C 339.315 130, 339.107 130.895, 338.809 139.750 M 138.500 136.604 C 132.763 137.487, 126.181 137.769, 120.345 137.383 C 111.733 136.812, 111.123 136.902, 110.060 138.888 C 108.941 140.979, 109.039 141, 120.215 140.991 C 133.560 140.981, 152.802 139.406, 156.430 138.026 C 157.844 137.489, 159 136.588, 159 136.025 C 159 134.635, 149.559 134.902, 138.500 136.604 M 275.500 136.233 C 260.801 137.175, 257 138.028, 257 140.384 C 257 141.503, 258.238 141.719, 262.750 141.384 C 265.913 141.150, 275.700 140.530, 284.500 140.006 C 302.077 138.960, 305 138.443, 305 136.383 C 305 134.792, 298.496 134.758, 275.500 136.233 M 428.500 135.507 C 427.950 135.699, 422.635 136.159, 416.689 136.529 C 407.097 137.125, 405.575 137.479, 403.189 139.668 L 400.500 142.135 406.500 141.581 C 409.800 141.276, 419.475 140.550, 428 139.968 C 445.621 138.764, 448 138.339, 448 136.392 C 448 135.297, 446.023 135.017, 438.750 135.079 C 433.663 135.122, 429.050 135.315, 428.500 135.507 M 61.667 156.667 C 61.300 157.033, 61 211.843, 61 278.467 C 61 371.348, 61.280 399.880, 62.200 400.800 C 62.860 401.460, 64.216 402, 65.213 402 C 66.943 402, 66.999 400.130, 66.436 360.750 C 66.043 333.210, 66.188 319.008, 66.874 318.021 C 67.751 316.758, 75.210 316.486, 117.919 316.155 C 145.429 315.942, 169.101 316.060, 170.524 316.417 L 173.112 317.066 172.933 358.110 C 172.747 400.833, 172.925 402.798, 176.778 400.369 C 178.392 399.350, 178.500 391.675, 178.500 277.891 L 178.500 156.500 176 156.500 L 173.500 156.500 173.237 191.250 L 172.974 226 120.048 226 L 67.121 226 66.810 191.963 C 66.547 163.028, 66.275 157.783, 65 156.978 C 63.204 155.844, 62.551 155.783, 61.667 156.667 M 186 279 C 186 360.333, 186.339 402, 187 402 C 187.661 402, 188 361.880, 188 283.640 C 188 218.541, 188.286 163.191, 188.636 160.640 C 189.169 156.752, 189.007 156, 187.636 156 C 186.130 156, 186 165.791, 186 279 M 194.709 156.624 C 194.319 157.014, 194 211.911, 194 278.617 C 194 392.393, 194.107 399.960, 195.724 400.866 C 196.818 401.478, 198.098 401.483, 199.224 400.880 C 200.881 399.993, 201 397.167, 201 358.606 L 201 317.283 212.250 316.746 C 218.438 316.450, 244.313 316.456, 269.750 316.757 L 316 317.306 316 359.223 L 316 401.139 318.250 400.820 C 320.290 400.530, 320.497 399.964, 320.464 394.750 C 320.445 391.587, 320.332 336.542, 320.214 272.427 C 320.011 162.009, 319.908 155.871, 318.250 156.190 C 316.629 156.502, 316.481 159.097, 316.237 191.263 L 315.974 226 258 226 L 200.026 226 199.763 191.250 C 199.505 157.128, 199.463 156.495, 197.459 156.208 C 196.336 156.047, 195.099 156.235, 194.709 156.624 M 328.809 156.750 C 328.108 158.451, 329.563 401.459, 330.271 401 C 330.695 400.725, 331.145 345.487, 331.271 278.250 C 331.447 184.219, 331.225 156, 330.309 156 C 329.654 156, 328.979 156.338, 328.809 156.750 M 339.246 278.736 C 339.486 394.717, 339.596 401.491, 341.250 401.810 C 342.894 402.126, 343 399.585, 343 359.653 L 343 317.159 349.440 316.470 C 352.982 316.090, 372.894 316.041, 393.690 316.361 C 414.485 316.681, 436.788 316.955, 443.250 316.971 L 455 317 455 359.070 L 455 401.139 457.121 400.820 L 459.243 400.500 459.371 278.250 L 459.500 156 457.250 156 L 455 156 455 191 L 455 226 399 226 L 343 226 343 191 C 343 156.644, 342.963 156, 340.996 156 C 339 156, 338.993 156.502, 339.246 278.736 M 375.667 161.667 C 374.824 162.510, 374.792 178.708, 375.625 182.875 C 376.222 185.862, 376.465 186, 381.125 186 L 386 186 386 173.500 L 386 161 381.167 161 C 378.508 161, 376.033 161.300, 375.667 161.667 M 398.491 162.014 C 397.833 163.080, 398.080 208.079, 398.789 216.250 L 399.201 221 403.101 221 C 405.526 221, 407.020 220.527, 407.052 219.750 C 407.474 209.690, 407.670 163.303, 407.294 162.325 C 406.694 160.761, 399.425 160.504, 398.491 162.014 M 393.441 191 C 393.441 206.675, 393.579 213.087, 393.748 205.250 C 393.917 197.412, 393.917 184.587, 393.748 176.750 C 393.579 168.912, 393.441 175.325, 393.441 191 M 427.219 178.250 L 427.500 190.500 431.250 190.810 L 435 191.121 435 178.560 L 435 166 430.969 166 L 426.938 166 427.219 178.250 M 74 176.552 L 74 186.105 79.250 185.802 L 84.500 185.500 84.788 176.250 L 85.075 167 79.538 167 L 74 167 74 176.552 M 354 176.458 L 354 186 361.481 186 C 370.244 186, 370.295 185.930, 369.801 174.479 L 369.500 167.500 361.750 167.208 L 354 166.916 354 176.458 M 91 177 C 91 184.001, 91.308 186, 92.385 186 C 94.151 186, 97 177.395, 97 172.062 C 97 168.215, 96.841 168, 94 168 L 91 168 91 177 M 123 179.500 L 123 191 127.500 191 L 132 191 132 179.500 L 132 168 127.500 168 L 123 168 123 179.500 M 299.250 168.813 C 296.016 169.125, 296 169.154, 296 174.613 L 296 180.100 301.750 179.800 L 307.500 179.500 307.798 174.371 C 308.086 169.423, 307.997 169.228, 305.298 168.871 C 303.759 168.667, 301.038 168.641, 299.250 168.813 M 260.667 169.667 C 260.300 170.033, 260 174.293, 260 179.131 C 260 188.874, 260.719 190, 266.934 190 L 270 190 270 180.117 C 270 170.713, 269.891 170.204, 267.750 169.630 C 264.754 168.827, 261.489 168.844, 260.667 169.667 M 276.212 180.239 C 276.457 188.107, 276.760 189.527, 278.250 189.812 C 279.818 190.112, 280 189.152, 280 180.573 C 280 171.608, 279.871 171, 277.962 171 C 276.039 171, 275.941 171.516, 276.212 180.239 M 442 180.570 C 442 189.922, 442.051 190.132, 444.250 189.820 C 446.374 189.518, 446.516 188.980, 446.788 180.250 L 447.075 171 444.538 171 L 442 171 442 180.570 M 138 182.566 L 138 191.133 140.750 190.816 C 143.475 190.503, 143.503 190.425, 143.790 182.250 L 144.081 174 141.040 174 L 138 174 138 182.566 M 224.200 180.750 C 224.495 186.406, 224.549 186.500, 227.500 186.500 C 230.451 186.500, 230.505 186.406, 230.800 180.750 L 231.100 175 227.500 175 L 223.900 175 224.200 180.750 M 235 177.483 C 235 183.052, 246.753 218.111, 249.108 219.567 C 250.870 220.656, 249.914 216.675, 244.492 200.342 C 241.462 191.216, 238.705 182.006, 238.364 179.875 C 237.771 176.169, 235 174.199, 235 177.483 M 151.412 178.369 C 151.123 179.122, 151.024 182.160, 151.193 185.119 C 151.462 189.827, 151.781 190.540, 153.750 190.820 C 155.901 191.125, 156 190.829, 156 184.070 C 156 177.630, 155.819 177, 153.969 177 C 152.851 177, 151.701 177.616, 151.412 178.369 M 208 182 L 208 187 213 187 L 218 187 218 182 L 218 177 213 177 L 208 177 208 182 M 286.667 177.667 C 285.697 178.637, 285.879 187.260, 286.904 188.878 C 288.588 191.538, 290 188.831, 290 182.941 C 290 178.657, 289.628 177, 288.667 177 C 287.933 177, 287.033 177.300, 286.667 177.667 M 114.322 181.948 C 114.649 183.294, 114.443 184.966, 113.864 185.663 C 112.598 187.190, 113.781 195.619, 115.079 194.321 C 116.578 192.822, 116.577 182.167, 115.078 180.764 C 113.961 179.719, 113.831 179.923, 114.322 181.948 M 162 200.500 L 162 221 164.500 221 L 167 221 167 200.500 L 167 180 164.500 180 L 162 180 162 200.500 M 101.336 185.566 C 100.313 188.232, 114.147 220.186, 115.666 218.667 C 115.964 218.369, 113.649 210.447, 110.521 201.063 C 105.005 184.512, 103.023 181.169, 101.336 185.566 M 246.355 188.572 C 246.700 191.087, 247.408 193.900, 247.929 194.822 C 248.729 196.237, 249.111 195.943, 250.371 192.945 C 251.192 190.989, 252.169 188.177, 252.541 186.695 C 253.185 184.128, 253.039 184, 249.472 184 L 245.728 184 246.355 188.572 M 296 191.450 L 296 198 302.048 198 L 308.095 198 307.798 191.750 L 307.500 185.500 301.750 185.200 L 296 184.900 296 191.450 M 74 206 L 74 221 78.844 221 L 83.689 221 84.331 206.883 C 84.684 199.118, 84.728 192.368, 84.428 191.883 C 84.128 191.397, 81.659 191, 78.941 191 L 74 191 74 206 M 354 206 L 354 221 361.383 221 C 370.327 221, 369.967 221.722, 369.986 203.750 L 370 191 362 191 L 354 191 354 206 M 376 206 L 376 221 381 221 L 386 221 386 206 L 386 191 381 191 L 376 191 376 206 M 91 206.500 L 91 221 94.633 221 L 98.265 221 97.755 208.250 C 97.474 201.238, 96.916 194.713, 96.515 193.750 C 96.108 192.774, 94.728 192, 93.393 192 L 91 192 91 206.500 M 208 206.500 L 208 221 212.393 221 C 215.476 221, 216.967 220.528, 217.393 219.418 C 217.727 218.548, 218 212.023, 218 204.918 L 218 192 213 192 L 208 192 208 206.500 M 223.607 193.582 C 222.810 195.658, 222.824 213.868, 223.625 217.875 C 224.211 220.804, 224.525 221, 228.625 221 L 233 221 232.995 216.250 C 232.992 213.637, 232.699 207.113, 232.344 201.750 L 231.698 192 227.956 192 C 225.466 192, 224.011 192.529, 223.607 193.582 M 260.667 195.667 C 260.300 196.033, 260 201.883, 260 208.667 L 260 221 265 221 L 270 221 270 208 L 270 195 265.667 195 C 263.283 195, 261.033 195.300, 260.667 195.667 M 276 208 C 276 219.333, 276.111 220, 278 220 C 279.889 220, 280 219.333, 280 208 C 280 196.667, 279.889 196, 278 196 C 276.111 196, 276 196.667, 276 208 M 286.752 197.250 C 285.977 199.350, 285.833 213.592, 286.549 217.408 C 286.938 219.483, 287.809 221, 288.611 221 C 289.722 221, 290 218.499, 290 208.500 C 290 198.482, 289.723 196, 288.607 196 C 287.841 196, 287.006 196.563, 286.752 197.250 M 124 209 L 124 221 128 221 L 132 221 132 209 L 132 197 128 197 L 124 197 124 209 M 138.667 197.667 C 137.833 198.500, 137.782 217.268, 138.607 219.418 C 138.941 220.288, 140.291 221, 141.607 221 C 143.998 221, 144 220.990, 144 209 C 144 197.095, 143.981 197, 141.667 197 C 140.383 197, 139.033 197.300, 138.667 197.667 M 151.667 197.667 C 151.300 198.033, 151 203.433, 151 209.667 L 151 221 153.500 221 L 156 221 156 209 C 156 198.030, 155.843 197, 154.167 197 C 153.158 197, 152.033 197.300, 151.667 197.667 M 427.353 204.651 C 427.709 208.859, 428 214.512, 428 217.214 L 428 222.127 431.250 221.813 L 434.500 221.500 434.781 209.250 L 435.062 197 430.884 197 L 426.707 197 427.353 204.651 M 442.219 209.176 C 442.483 220.740, 442.623 221.500, 444.500 221.500 C 446.389 221.500, 446.500 220.833, 446.500 209.500 C 446.500 197.768, 446.449 197.493, 444.219 197.176 L 441.937 196.853 442.219 209.176 M 296.667 204.667 C 296.300 205.033, 296 208.881, 296 213.217 L 296 221.100 301.750 220.800 L 307.500 220.500 307.790 212.250 L 308.081 204 302.707 204 C 299.752 204, 297.033 204.300, 296.667 204.667 M 257.750 228.758 L 201 229.017 201 242.008 L 201 255 203.500 255 C 205.056 255, 206 255.567, 206 256.500 C 206 257.433, 205.056 258, 203.500 258 L 201 258 201 286 L 201 314 258.500 314 L 316 314 316 271.559 C 316 248.216, 315.663 228.979, 315.250 228.809 C 314.837 228.639, 288.962 228.616, 257.750 228.758 M 66.607 230.582 C 65.694 232.960, 65.907 311.305, 66.830 312.759 C 67.459 313.750, 78.779 313.963, 120.065 313.759 L 172.500 313.500 172.761 271.250 L 173.022 229 120.118 229 C 72.799 229, 67.150 229.167, 66.607 230.582 M 343.239 271.250 L 343.500 313.500 399.250 313.758 L 455 314.017 455 271.508 L 455 229 398.989 229 L 342.978 229 343.239 271.250 M 427 265.434 L 427 281 430.026 281 L 433.052 281 432.776 265.750 L 432.500 250.500 429.750 250.184 L 427 249.867 427 265.434 M 111.250 251.723 C 107.716 252.162, 107.512 252.586, 108.975 256.435 C 109.768 258.519, 110.612 259, 113.475 259 C 116.921 259, 117 258.910, 117 255 C 117 252.381, 116.568 251.055, 115.750 251.160 C 115.063 251.248, 113.037 251.502, 111.250 251.723 M 395 266 L 395 281 400.883 281 C 408.095 281, 407.968 281.309, 407.986 263.750 L 408 251 401.500 251 L 395 251 395 266 M 414.223 265.750 L 414.500 280.500 417.750 280.813 L 421 281.127 421 266.063 L 421 251 417.473 251 L 413.947 251 414.223 265.750 M 74.385 253.189 C 74.150 253.568, 74.259 258.856, 74.629 264.939 L 75.301 276 79.650 276 L 84 276 84 263.960 L 84 251.920 79.406 252.210 C 76.880 252.369, 74.620 252.810, 74.385 253.189 M 91 263.846 L 91 275.692 94.750 275.468 L 98.500 275.244 98.819 268.872 C 98.994 265.367, 98.850 260.137, 98.497 257.250 C 97.864 252.062, 97.815 252, 94.428 252 L 91 252 91 263.846 M 270.009 258.250 C 270.013 261.137, 270.301 265.863, 270.648 268.750 L 271.279 274 276.139 274 L 281 274 281 263.500 L 281 253 275.500 253 L 270 253 270.009 258.250 M 287 263.563 L 287 274.127 290.250 273.813 L 293.500 273.500 293.785 263.250 L 294.070 253 290.535 253 L 287 253 287 263.563 M 353.536 261.250 C 353.213 263.587, 352.848 270.675, 352.724 277 L 352.500 288.500 358.750 288.798 C 364.200 289.057, 365.004 288.865, 365.032 287.298 C 365.049 286.309, 365.680 279.425, 366.433 272 C 367.187 264.575, 367.596 258.163, 367.342 257.750 C 367.089 257.337, 364.011 257, 360.502 257 L 354.123 257 353.536 261.250 M 104.116 283.750 C 104.052 297.637, 104.375 309, 104.833 309 C 105.586 309, 105.331 263.564, 104.557 260 C 104.378 259.175, 104.180 269.863, 104.116 283.750 M 373.607 260.582 C 372.034 264.681, 372.860 266, 377 266 C 380.742 266, 381 265.814, 381 263.117 C 381 260.972, 380.424 260.079, 378.750 259.630 C 375.250 258.692, 374.262 258.875, 373.607 260.582 M 299.611 265.873 C 298.931 270.997, 299.597 274.367, 301.105 273.435 C 302.259 272.722, 302.281 261, 301.129 261 C 300.650 261, 299.967 263.193, 299.611 265.873 M 112.250 263.706 C 109.525 264.231, 109.520 264.411, 111.896 276.140 C 112.940 281.288, 114.330 288.762, 114.987 292.750 C 116.102 299.522, 116.347 300, 118.707 300 C 121.202 300, 121.226 299.923, 120.645 293.750 C 120.321 290.313, 119.804 283.900, 119.495 279.500 C 118.268 262.007, 118.495 262.503, 112.250 263.706 M 211.157 263.882 C 210.098 264.553, 211.235 268.093, 216.533 280.617 C 220.229 289.352, 224.417 299.363, 225.839 302.863 C 227.262 306.363, 229.028 309.457, 229.764 309.740 C 230.500 310.022, 232.150 309.268, 233.432 308.064 L 235.763 305.874 228.002 290.687 C 223.734 282.334, 219.177 272.688, 217.876 269.250 C 215.545 263.093, 214.155 261.982, 211.157 263.882 M 249.667 263.667 C 248.841 264.492, 248.820 269.728, 249.630 272.750 C 250.169 274.760, 250.861 275, 256.117 275 L 262 275 262 269 L 262 263 256.167 263 C 252.958 263, 250.033 263.300, 249.667 263.667 M 443.227 287.250 C 443.497 305.321, 443.522 305.503, 445.750 305.820 L 448 306.139 448 287.570 L 448 269 445.477 269 L 442.955 269 443.227 287.250 M 370.665 286.750 C 368.392 307.880, 368.423 309, 371.272 309 C 373.448 309, 373.640 308.313, 375.824 292.750 C 377.078 283.813, 378.358 275.262, 378.669 273.750 C 379.197 271.174, 379.016 271, 375.796 271 L 372.359 271 370.665 286.750 M 129.200 284.750 L 129.500 290.500 138.250 290.789 L 147 291.078 147 285.039 L 147 279 137.950 279 L 128.900 279 129.200 284.750 M 152 285.548 L 152 291.095 158.250 290.798 L 164.500 290.500 164.802 285.250 L 165.105 280 158.552 280 L 152 280 152 285.548 M 251.007 281.250 C 251.017 283.144, 254.824 304.869, 255.542 307.134 C 256.001 308.578, 256.895 309.033, 258.836 308.808 L 261.500 308.500 261.777 294.250 L 262.055 280 256.527 280 C 252.769 280, 251.002 280.400, 251.007 281.250 M 74.245 282.250 C 74.475 282.949, 76.717 283.634, 79.328 283.805 C 83.018 284.046, 84 283.783, 84 282.555 C 84 281.352, 82.848 281, 78.917 281 C 75.297 281, 73.952 281.360, 74.245 282.250 M 91.250 282.250 C 91.479 282.938, 93.167 283.500, 95 283.500 C 96.833 283.500, 98.521 282.938, 98.750 282.250 C 99.039 281.383, 97.889 281, 95 281 C 92.111 281, 90.961 281.383, 91.250 282.250 M 271 295 L 271 309 276 309 L 281 309 281 295 L 281 281 276 281 L 271 281 271 295 M 287 295 L 287 309 290 309 L 293 309 293 295 L 293 281 290 281 L 287 281 287 295 M 299 295.500 C 299 306.833, 299.241 309, 300.500 309 C 301.759 309, 302 306.833, 302 295.500 C 302 284.167, 301.759 282, 300.500 282 C 299.241 282, 299 284.167, 299 295.500 M 395.215 298.250 L 395.500 308.500 401.500 308.500 L 407.500 308.500 407.785 298.250 L 408.070 288 401.500 288 L 394.930 288 395.215 298.250 M 414.215 298.250 L 414.500 308.500 417.750 308.813 L 421 309.127 421 298.563 L 421 288 417.465 288 L 413.930 288 414.215 298.250 M 427 298.500 L 427 309 430 309 L 433 309 433 298.500 L 433 288 430 288 L 427 288 427 298.500 M 75 299.546 L 75 310.092 79.500 309.859 L 84 309.626 84 299.313 L 84 289 79.500 289 L 75 289 75 299.546 M 91 299 L 91 309 95 309 L 99 309 99 299 L 99 289 95 289 L 91 289 91 299 M 351.520 300.631 C 350.965 306.547, 351.108 308.453, 352.152 309.115 C 353.909 310.229, 359.117 310.212, 360.893 309.087 C 362.245 308.231, 363.819 301.341, 363.940 295.750 C 363.999 293.055, 363.883 293, 358.117 293 L 352.235 293 351.520 300.631 M 130.255 301.583 C 130.575 305.574, 131.334 308.606, 132.145 309.134 C 132.890 309.619, 136.425 309.900, 140 309.758 L 146.500 309.500 146.500 302.500 L 146.500 295.500 138.110 295.207 L 129.719 294.915 130.255 301.583 M 152.206 302.250 L 152.500 309.500 158.500 309.500 L 164.500 309.500 164.812 304.566 C 165.372 295.718, 164.856 295, 157.937 295 L 151.912 295 152.206 302.250 M 106.673 333.750 C 105.586 335.580, 103.839 345.775, 104.153 348.451 C 104.469 351.135, 105.076 351.571, 110.877 353.274 C 114.384 354.304, 117.601 354.776, 118.026 354.323 C 119.347 352.914, 123.009 338.606, 122.234 337.878 C 121.630 337.309, 108.571 333, 107.454 333 C 107.269 333, 106.918 333.337, 106.673 333.750 M 213 343.500 L 213 349 219.500 349 L 226 349 226 343.500 L 226 338 219.500 338 L 213 338 213 343.500 M 232.728 338.750 C 232.514 339.163, 232.534 341.656, 232.773 344.292 L 233.208 349.083 240.354 348.792 L 247.500 348.500 247.802 343.250 L 248.105 338 240.611 338 C 236.490 338, 232.943 338.337, 232.728 338.750 M 353 349.955 L 353 361.909 356.413 362.550 C 358.290 362.902, 360.765 362.892, 361.913 362.528 C 363.875 361.905, 364 361.153, 364 349.933 L 364 338 358.500 338 L 353 338 353 349.955 M 370 350 L 370 362 377.350 362 L 384.699 362 385.371 350.939 C 385.741 344.856, 385.782 339.456, 385.462 338.939 C 385.143 338.423, 381.534 338, 377.441 338 L 370 338 370 350 M 133 350.500 L 133 362 140 362 L 147 362 147 350.500 L 147 339 140 339 L 133 339 133 350.500 M 152 350.500 L 152 362 159 362 L 166 362 166 350.500 L 166 339 159 339 L 152 339 152 350.500 M 89.607 342.582 C 88.326 345.919, 89.178 346.661, 96.250 348.373 C 98.764 348.981, 99 348.793, 99 346.177 C 99 343.723, 98.451 343.152, 95.134 342.158 C 90.258 340.697, 90.332 340.692, 89.607 342.582 M 87.598 351.842 C 86.985 352.833, 76 393.532, 76 394.810 C 76 396.251, 87.083 398.964, 87.547 397.637 C 87.766 397.012, 89.987 387.727, 92.483 377.004 C 94.979 366.282, 97.272 356.719, 97.578 355.755 C 97.963 354.542, 97.420 353.738, 95.817 353.147 C 91.397 351.517, 88.120 350.997, 87.598 351.842 M 213.190 357.750 L 213.500 361.500 220 361.500 L 226.500 361.500 226.810 357.750 L 227.121 354 220 354 L 212.879 354 213.190 357.750 M 232.393 355.582 C 232.727 356.452, 233 358.252, 233 359.582 C 233 361.906, 233.269 362, 239.893 362 C 247.244 362, 248 361.479, 248 356.418 C 248 354.059, 247.801 354, 239.893 354 C 232.911 354, 231.870 354.220, 232.393 355.582 M 97.701 375.250 C 95.090 385.837, 92.964 395.270, 92.977 396.211 C 93.004 398.195, 102.803 401.597, 104.268 400.132 C 105.435 398.965, 114.761 367.075, 115.175 362.836 C 115.486 359.651, 115.288 359.440, 110.500 357.835 C 107.750 356.914, 104.813 356.124, 103.974 356.080 C 102.809 356.019, 101.324 360.557, 97.701 375.250 M 139.250 366.798 C 133.819 367.056, 133 367.351, 133 369.048 C 133 370.798, 133.724 371, 140 371 C 146.262 371, 147 370.795, 147 369.059 C 147 366.544, 146.659 366.445, 139.250 366.798 M 152.187 368.750 C 152.458 370.174, 153.777 370.555, 159.260 370.796 C 165.480 371.069, 166 370.934, 166 369.046 C 166 367.178, 165.386 367, 158.927 367 C 152.730 367, 151.895 367.217, 152.187 368.750 M 213 380.375 C 213 387.731, 213.285 395.176, 213.634 396.919 L 214.268 400.088 220.384 399.794 L 226.500 399.500 226.775 383.250 L 227.050 367 220.025 367 L 213 367 213 380.375 M 233 383.500 L 233 400 240 400 L 247 400 247 383.500 L 247 367 240 367 L 233 367 233 383.500 M 353.667 367.667 C 352.008 369.326, 353.405 370, 358.500 370 C 362.722 370, 364 369.652, 364 368.500 C 364 367.374, 362.796 367, 359.167 367 C 356.508 367, 354.033 367.300, 353.667 367.667 M 370 368.500 C 370 369.708, 371.556 370, 378 370 C 384.444 370, 386 369.708, 386 368.500 C 386 367.292, 384.444 367, 378 367 C 371.556 367, 370 367.292, 370 368.500 M 401.750 368.723 L 392 369.072 392 374.454 C 392 383.371, 391.343 383, 407.151 383 L 421.088 383 420.794 375.750 L 420.500 368.500 416 368.437 C 413.525 368.403, 407.113 368.531, 401.750 368.723 M 257.161 371.879 C 256.156 372.516, 255.998 374.134, 256.526 378.364 L 257.230 384 271.115 384 L 285 384 285 377.500 L 285 371 271.750 371.015 C 264.462 371.024, 257.897 371.413, 257.161 371.879 M 426.367 371.765 C 425.645 372.233, 425.419 374.407, 425.744 377.750 L 426.254 383 434.108 383 C 441.657 383, 441.986 382.903, 442.591 380.493 C 442.937 379.115, 442.925 376.415, 442.565 374.493 L 441.909 371 434.705 371.015 C 430.742 371.024, 426.990 371.361, 426.367 371.765 M 290 378.883 C 290 384.348, 290.871 384.973, 298.500 384.973 C 306.129 384.973, 307 384.348, 307 378.883 L 307 374 298.500 374 L 290 374 290 378.883 M 133 387.500 L 133 400 140 400 L 147 400 147 387.500 L 147 375 140 375 L 133 375 133 387.500 M 152 387.500 L 152 400.091 158.750 399.796 L 165.500 399.500 165.500 387.500 L 165.500 375.500 158.750 375.204 L 152 374.909 152 387.500 M 353.365 387.250 L 353.500 399.500 358.750 399.802 L 364 400.105 364 387.552 L 364 375 358.615 375 L 353.229 375 353.365 387.250 M 370 387.500 L 370 400 377.500 400 L 385 400 385 387.500 L 385 375 377.500 375 L 370 375 370 387.500 M 392.006 390.250 C 392.009 391.488, 392.480 394.188, 393.053 396.250 L 394.094 400 407.488 400 C 415.732 400, 421.131 399.598, 421.528 398.954 C 421.884 398.379, 421.868 395.679, 421.494 392.954 L 420.812 388 406.406 388 C 392.131 388, 392 388.021, 392.006 390.250 M 426.316 393.024 C 426.644 395.787, 427.183 398.487, 427.515 399.024 C 427.847 399.561, 430.534 400, 433.488 400 C 440.219 400, 442 398.416, 442 392.429 L 442 388 433.861 388 L 425.721 388 426.316 393.024 M 256.484 393.750 C 256.875 396.363, 257.402 398.837, 257.656 399.250 C 257.910 399.663, 264.166 400, 271.559 400 L 285 400 285 394.500 L 285 389 270.386 389 L 255.773 389 256.484 393.750 M 290.481 390.030 C 290.103 390.642, 290.096 393.153, 290.465 395.612 L 291.135 400.082 298.817 399.791 L 306.500 399.500 306.500 394.500 L 306.500 389.500 298.834 389.209 C 293.989 389.026, 290.915 389.328, 290.481 390.030" stroke="none" fill="black" fill-rule="evenodd"/>
</svg>